<?xml version="1.0" encoding="utf-8"?>
<!-- Generator: Adobe Illustrator 19.1.0, SVG Export Plug-In . SVG Version: 6.00 Build 0)  -->
<svg version="1.1" id="Ebene_1" xmlns="http://www.w3.org/2000/svg" xmlns:xlink="http://www.w3.org/1999/xlink" x="0px" y="0px"
	 viewBox="0 0 210 80" style="enable-background:new 0 0 210 80;" xml:space="preserve">
<style type="text/css">
	.st0{fill:#555758;}
	.st1{font-family:'Verdana';}
	.st2{font-size:18.0232px;}
	.st3{fill:#9ABD0D;}
</style>
<text transform="matrix(1 0 0 1 70.0866 75.0459)" class="st0 st1 st2">Handels GmbH</text>
<path class="st3" d="M199.2,24.9l-45.8,0L147.7,40c0.7,0.6,1.2,1.5,1.2,2.5c0,1.8-1.5,3.3-3.3,3.3c-1.8,0-3.3-1.5-3.3-3.3
	c0-0.4,0.1-0.8,0.2-1.1l-13.1-16.6h-17.3L86.8,40.8c0.3,0.5,0.4,1,0.4,1.6c0,1.8-1.5,3.3-3.3,3.3c-1.8,0-3.3-1.5-3.3-3.3
	c0-1.5,1-2.7,2.4-3.1l-3.3-14.6H63.3l-11.9,7.7L48,24.8H31.6L0.7,48.2l18.5,0l19.6-16.1l4.1,15.7l-0.1,0.2l21.6-15.9l3.6,16.1h26.5
	l5.4-3.6h26.8l2.4,3.6l62.1-0.1c7.8,0,13.3-1.5,16.8-9.2l1.1-4.2C210.3,31,206.8,24.9,199.2,24.9z M107.6,39.4l10.8-7.3l5,7.3H107.6
	z M192.2,35.1l-1.6,4.3c-1,2.5-3.8,3.1-5.5,3.1h-19.4l4.7-12.1h18.9C190.9,30.4,193.2,32.5,192.2,35.1z"/>
</svg>
