<?xml version="1.0" encoding="utf-8"?>
<!-- Generator: Adobe Illustrator 26.0.3, SVG Export Plug-In . SVG Version: 6.00 Build 0)  -->
<svg version="1.1" id="Ebene_1" xmlns="http://www.w3.org/2000/svg" xmlns:xlink="http://www.w3.org/1999/xlink" x="0px" y="0px"
	 viewBox="0 0 240.9 155.9" style="enable-background:new 0 0 240.9 155.9;" xml:space="preserve">
<style type="text/css">
	.st0{clip-path:url(#SVGID_00000015326285650937808780000001618832095984018560_);fill:#575756;}
	.st1{fill:#575656;}
	.st2{fill:#FFFFFF;}
	.st3{font-family:'Arial-BoldMT';}
	.st4{font-size:10px;}
	.st5{font-family:'ArialMT';}
	.st6{font-size:7px;}
	.st7{fill:none;stroke:#575656;stroke-width:0.5;stroke-miterlimit:10;}
</style>
<g>
	<defs>
		<rect id="SVGID_1_" x="6.8" y="66.6" width="99.5" height="22.9"/>
	</defs>
	<clipPath id="SVGID_00000031929819114932241370000012148409026367150983_">
		<use xlink:href="#SVGID_1_"  style="overflow:visible;"/>
	</clipPath>
	<path style="clip-path:url(#SVGID_00000031929819114932241370000012148409026367150983_);fill:#575756;" d="M20.2,69.2L18.4,71
		c-1.2-1.2-2.5-1.9-4.1-1.9c-1.4,0-2.5,0.5-3.4,1.4c-0.9,0.9-1.4,2-1.4,3.3c0,1.3,0.5,2.5,1.4,3.4s2.1,1.4,3.5,1.4
		c0.9,0,1.7-0.2,2.3-0.6c0.6-0.4,1.1-1,1.5-1.8h-4v-2.5h7l0,0.6c0,1.2-0.3,2.4-0.9,3.4c-0.6,1.1-1.4,1.9-2.4,2.5
		c-1,0.6-2.2,0.9-3.5,0.9c-1.4,0-2.7-0.3-3.8-0.9c-1.1-0.6-2-1.5-2.7-2.7c-0.7-1.2-1-2.4-1-3.7c0-1.8,0.6-3.4,1.8-4.8
		c1.4-1.6,3.3-2.4,5.6-2.4c1.2,0,2.3,0.2,3.4,0.7C18.5,67.6,19.4,68.3,20.2,69.2"/>
	<path style="clip-path:url(#SVGID_00000031929819114932241370000012148409026367150983_);fill:#575756;" d="M23.8,66.9h2.8
		c1.5,0,2.6,0.1,3.3,0.4c0.6,0.3,1.2,0.7,1.6,1.4c0.4,0.6,0.6,1.4,0.6,2.3c0,0.9-0.2,1.7-0.7,2.3c-0.4,0.6-1.1,1.1-2,1.4l3.3,6.2
		h-2.9l-3.1-5.9h-0.2v5.9h-2.6V66.9z M26.4,72.4h0.8c0.8,0,1.4-0.1,1.7-0.3c0.3-0.2,0.5-0.6,0.5-1.1c0-0.3-0.1-0.6-0.2-0.8
		c-0.2-0.2-0.4-0.4-0.6-0.5c-0.3-0.1-0.7-0.1-1.4-0.1h-0.7V72.4z"/>
	<path style="clip-path:url(#SVGID_00000031929819114932241370000012148409026367150983_);fill:#575756;" d="M39,66.9h2.7L47,80.8
		h-2.7l-1.1-2.9h-5.7l-1.1,2.9h-2.7L39,66.9z M40.4,70.6l-1.9,4.8h3.7L40.4,70.6z"/>
	<path style="clip-path:url(#SVGID_00000031929819114932241370000012148409026367150983_);fill:#575756;" d="M49.1,80.8V66.9h2.2
		c1.3,0,2.2,0.1,2.8,0.2c0.8,0.2,1.5,0.6,2,1.2c0.5,0.6,0.7,1.3,0.7,2.1c0,0.5-0.1,1-0.3,1.4c-0.2,0.4-0.6,0.8-1.1,1.2
		c0.8,0.4,1.5,0.9,1.8,1.5c0.4,0.6,0.6,1.3,0.6,2.1c0,0.8-0.2,1.5-0.6,2.1c-0.4,0.6-0.9,1.1-1.6,1.4s-1.5,0.5-2.6,0.5H49.1z
		 M51.7,69.5v2.9h0.6c0.6,0,1.1-0.1,1.4-0.4c0.3-0.3,0.5-0.6,0.5-1.1c0-0.4-0.1-0.8-0.4-1c-0.3-0.3-0.7-0.4-1.4-0.4H51.7z
		 M51.7,74.7v3.6h0.7c1.1,0,1.8-0.1,2.2-0.4c0.4-0.3,0.6-0.7,0.6-1.2c0-0.6-0.2-1.1-0.7-1.4c-0.4-0.3-1.2-0.5-2.2-0.5H51.7z"/>
	<polygon style="clip-path:url(#SVGID_00000031929819114932241370000012148409026367150983_);fill:#575756;" points="61.6,66.9 
		64.2,66.9 67.4,76.6 70.6,66.9 73.2,66.9 75.5,80.8 73,80.8 71.5,72 68.5,80.8 66.2,80.8 63.3,72 61.8,80.8 59.2,80.8 	"/>
	<path style="clip-path:url(#SVGID_00000031929819114932241370000012148409026367150983_);fill:#575756;" d="M81.8,66.9h2.7
		l5.3,13.9h-2.7L86,77.9h-5.7l-1.1,2.9h-2.7L81.8,66.9z M83.2,70.6l-1.9,4.8H85L83.2,70.6z"/>
	
		<rect x="91.7" y="66.9" style="clip-path:url(#SVGID_00000031929819114932241370000012148409026367150983_);fill:#575756;" width="2.6" height="13.9"/>
	<path style="clip-path:url(#SVGID_00000031929819114932241370000012148409026367150983_);fill:#575756;" d="M97.5,66.9h2.8
		c1.5,0,2.6,0.1,3.3,0.4c0.6,0.3,1.2,0.7,1.6,1.4c0.4,0.6,0.6,1.4,0.6,2.3c0,0.9-0.2,1.7-0.7,2.3c-0.4,0.6-1.1,1.1-2,1.4l3.3,6.2
		h-2.9l-3.1-5.9h-0.2v5.9h-2.6V66.9z M100.1,72.4h0.8c0.8,0,1.4-0.1,1.7-0.3c0.3-0.2,0.5-0.6,0.5-1.1c0-0.3-0.1-0.6-0.2-0.8
		c-0.2-0.2-0.4-0.4-0.6-0.5c-0.3-0.1-0.7-0.1-1.4-0.1h-0.7V72.4z"/>
	<path style="clip-path:url(#SVGID_00000031929819114932241370000012148409026367150983_);fill:#575756;" d="M23.7,88.2L24,88
		c0.3,0.5,0.6,0.7,0.9,0.7c0.1,0,0.3,0,0.4-0.1c0.1-0.1,0.2-0.2,0.3-0.3c0.1-0.1,0.1-0.2,0.1-0.4c0-0.1,0-0.3-0.1-0.4
		c-0.1-0.2-0.4-0.4-0.7-0.7c-0.4-0.3-0.6-0.5-0.7-0.6c-0.2-0.2-0.2-0.4-0.2-0.7c0-0.2,0-0.4,0.1-0.5c0.1-0.2,0.2-0.3,0.4-0.4
		c0.2-0.1,0.3-0.1,0.5-0.1c0.2,0,0.4,0.1,0.6,0.2c0.2,0.1,0.4,0.3,0.6,0.6l-0.4,0.3c-0.2-0.2-0.3-0.4-0.4-0.4
		C25.2,85.1,25.1,85,25,85c-0.2,0-0.3,0.1-0.4,0.2c-0.1,0.1-0.2,0.2-0.2,0.4c0,0.1,0,0.2,0.1,0.3c0,0.1,0.1,0.2,0.2,0.3
		c0.1,0.1,0.2,0.2,0.6,0.4c0.4,0.3,0.6,0.5,0.8,0.7c0.1,0.2,0.2,0.4,0.2,0.7c0,0.3-0.1,0.6-0.4,0.8c-0.2,0.2-0.5,0.3-0.9,0.3
		c-0.3,0-0.5-0.1-0.7-0.2C24,88.8,23.8,88.6,23.7,88.2"/>
	<path style="clip-path:url(#SVGID_00000031929819114932241370000012148409026367150983_);fill:#575756;" d="M30.2,86.5l-0.3,0.2
		c-0.3-0.4-0.7-0.6-1.2-0.6c-0.4,0-0.7,0.1-1,0.4c-0.3,0.3-0.4,0.6-0.4,0.9c0,0.2,0.1,0.5,0.2,0.7c0.1,0.2,0.3,0.4,0.5,0.5
		c0.2,0.1,0.4,0.2,0.7,0.2c0.5,0,0.9-0.2,1.2-0.6l0.3,0.2c-0.2,0.2-0.4,0.4-0.6,0.5c-0.3,0.1-0.6,0.2-0.9,0.2
		c-0.5,0-0.9-0.2-1.3-0.5c-0.3-0.3-0.5-0.7-0.5-1.2c0-0.3,0.1-0.6,0.2-0.9c0.2-0.3,0.4-0.5,0.6-0.6c0.3-0.1,0.6-0.2,0.9-0.2
		c0.2,0,0.4,0,0.6,0.1c0.2,0.1,0.4,0.1,0.5,0.3C29.9,86.2,30.1,86.3,30.2,86.5"/>
	<path style="clip-path:url(#SVGID_00000031929819114932241370000012148409026367150983_);fill:#575756;" d="M30.9,84.6h0.4v1.8
		c0.2-0.2,0.4-0.4,0.6-0.5s0.4-0.2,0.7-0.2c0.2,0,0.5,0.1,0.6,0.2c0.2,0.1,0.3,0.3,0.4,0.5c0.1,0.2,0.1,0.5,0.1,1V89h-0.4v-1.5
		c0-0.4,0-0.6,0-0.7c-0.1-0.2-0.1-0.4-0.3-0.5c-0.1-0.1-0.3-0.2-0.5-0.2c-0.2,0-0.5,0.1-0.7,0.2c-0.2,0.2-0.3,0.4-0.4,0.6
		c0,0.2-0.1,0.4-0.1,0.9V89h-0.4V84.6z"/>
	<path style="clip-path:url(#SVGID_00000031929819114932241370000012148409026367150983_);fill:#575756;" d="M34.6,85.8H35v0.6
		c0.1-0.2,0.3-0.4,0.4-0.4c0.2-0.1,0.4-0.2,0.7-0.2c0.2,0,0.3,0,0.4,0.1c0.1,0.1,0.3,0.1,0.3,0.2c0.1,0.1,0.2,0.2,0.2,0.4
		c0.1-0.3,0.3-0.4,0.5-0.6c0.2-0.1,0.4-0.2,0.7-0.2c0.2,0,0.4,0.1,0.6,0.2c0.2,0.1,0.3,0.3,0.4,0.5c0.1,0.2,0.1,0.5,0.1,0.9V89H39
		v-1.7c0-0.3,0-0.6-0.1-0.7c0-0.1-0.1-0.2-0.3-0.3c-0.1-0.1-0.3-0.1-0.4-0.1c-0.2,0-0.4,0.1-0.5,0.2c-0.2,0.1-0.3,0.3-0.4,0.5
		c-0.1,0.2-0.1,0.5-0.1,1V89h-0.4v-1.6c0-0.4,0-0.6-0.1-0.8c0-0.1-0.1-0.2-0.3-0.3c-0.1-0.1-0.3-0.1-0.4-0.1c-0.2,0-0.4,0.1-0.5,0.2
		c-0.2,0.1-0.3,0.3-0.4,0.5C35.1,87,35,87.3,35,87.7V89h-0.4V85.8z"/>
	<path style="clip-path:url(#SVGID_00000031929819114932241370000012148409026367150983_);fill:#575756;" d="M40.4,84.5
		c0.1,0,0.2,0,0.2,0.1c0.1,0.1,0.1,0.1,0.1,0.2c0,0.1,0,0.2-0.1,0.2c-0.1,0.1-0.1,0.1-0.2,0.1c-0.1,0-0.2,0-0.2-0.1
		c-0.1-0.1-0.1-0.1-0.1-0.2c0-0.1,0-0.2,0.1-0.2C40.2,84.5,40.3,84.5,40.4,84.5 M40.2,85.8h0.4V89h-0.4V85.8z"/>
	<path style="clip-path:url(#SVGID_00000031929819114932241370000012148409026367150983_);fill:#575756;" d="M44.2,88l0.3,0.2
		c-0.1,0.2-0.2,0.4-0.4,0.5c-0.1,0.1-0.3,0.2-0.5,0.3c-0.2,0.1-0.4,0.1-0.6,0.1c-0.5,0-0.9-0.2-1.2-0.5c-0.3-0.3-0.4-0.7-0.4-1.2
		c0-0.4,0.1-0.8,0.4-1.1c0.3-0.4,0.7-0.6,1.3-0.6c0.5,0,1,0.2,1.3,0.6c0.2,0.3,0.3,0.7,0.4,1.1h-2.9c0,0.4,0.1,0.7,0.4,0.9
		c0.2,0.2,0.5,0.4,0.9,0.4c0.2,0,0.3,0,0.5-0.1c0.2-0.1,0.3-0.1,0.4-0.2C43.9,88.3,44.1,88.2,44.2,88 M44.2,87.1
		c-0.1-0.2-0.1-0.4-0.2-0.5c-0.1-0.1-0.2-0.2-0.4-0.3c-0.2-0.1-0.4-0.1-0.5-0.1c-0.3,0-0.6,0.1-0.8,0.3c-0.2,0.1-0.3,0.4-0.4,0.7
		H44.2z"/>
	<path style="clip-path:url(#SVGID_00000031929819114932241370000012148409026367150983_);fill:#575756;" d="M48.6,84.6V89h-0.4
		v-0.5c-0.2,0.2-0.4,0.4-0.6,0.5s-0.4,0.2-0.7,0.2c-0.5,0-0.8-0.2-1.2-0.5c-0.3-0.3-0.5-0.7-0.5-1.2c0-0.5,0.2-0.9,0.5-1.2
		c0.3-0.3,0.7-0.5,1.2-0.5c0.3,0,0.5,0.1,0.7,0.2c0.2,0.1,0.4,0.3,0.6,0.5v-1.8H48.6z M46.9,86.1c-0.2,0-0.4,0.1-0.6,0.2
		c-0.2,0.1-0.3,0.3-0.5,0.5c-0.1,0.2-0.2,0.4-0.2,0.6c0,0.2,0.1,0.4,0.2,0.6c0.1,0.2,0.3,0.4,0.5,0.5c0.2,0.1,0.4,0.2,0.6,0.2
		c0.2,0,0.4-0.1,0.6-0.2c0.2-0.1,0.4-0.3,0.5-0.5c0.1-0.2,0.2-0.4,0.2-0.7c0-0.4-0.1-0.7-0.4-0.9C47.6,86.3,47.3,86.1,46.9,86.1"/>
	<path style="clip-path:url(#SVGID_00000031929819114932241370000012148409026367150983_);fill:#575756;" d="M52.2,88l0.3,0.2
		c-0.1,0.2-0.2,0.4-0.4,0.5c-0.1,0.1-0.3,0.2-0.5,0.3c-0.2,0.1-0.4,0.1-0.6,0.1c-0.5,0-0.9-0.2-1.2-0.5c-0.3-0.3-0.4-0.7-0.4-1.2
		c0-0.4,0.1-0.8,0.4-1.1c0.3-0.4,0.7-0.6,1.3-0.6c0.5,0,1,0.2,1.3,0.6c0.2,0.3,0.3,0.7,0.4,1.1h-2.9c0,0.4,0.1,0.7,0.4,0.9
		c0.2,0.2,0.5,0.4,0.9,0.4c0.2,0,0.3,0,0.5-0.1c0.2-0.1,0.3-0.1,0.4-0.2C52,88.3,52.1,88.2,52.2,88 M52.2,87.1
		c-0.1-0.2-0.1-0.4-0.2-0.5c-0.1-0.1-0.2-0.2-0.4-0.3c-0.2-0.1-0.4-0.1-0.5-0.1c-0.3,0-0.6,0.1-0.8,0.3c-0.2,0.1-0.3,0.4-0.4,0.7
		H52.2z"/>
	
		<rect x="57.4" y="84.6" style="clip-path:url(#SVGID_00000031929819114932241370000012148409026367150983_);fill:#575756;" width="0.4" height="5.6"/>
	<path style="clip-path:url(#SVGID_00000031929819114932241370000012148409026367150983_);fill:#575756;" d="M61.8,88.2l0.4-0.2
		c0.3,0.5,0.6,0.7,0.9,0.7c0.1,0,0.3,0,0.4-0.1c0.1-0.1,0.2-0.2,0.3-0.3c0.1-0.1,0.1-0.2,0.1-0.4c0-0.1,0-0.3-0.1-0.4
		c-0.1-0.2-0.4-0.4-0.7-0.7c-0.4-0.3-0.6-0.5-0.7-0.6c-0.2-0.2-0.2-0.4-0.2-0.7c0-0.2,0-0.4,0.1-0.5c0.1-0.2,0.2-0.3,0.4-0.4
		c0.2-0.1,0.3-0.1,0.5-0.1c0.2,0,0.4,0.1,0.6,0.2c0.2,0.1,0.4,0.3,0.6,0.6l-0.4,0.3c-0.2-0.2-0.3-0.4-0.4-0.4
		c-0.1-0.1-0.2-0.1-0.4-0.1c-0.2,0-0.3,0.1-0.4,0.2c-0.1,0.1-0.2,0.2-0.2,0.4c0,0.1,0,0.2,0.1,0.3c0,0.1,0.1,0.2,0.2,0.3
		c0.1,0.1,0.2,0.2,0.6,0.4c0.4,0.3,0.6,0.5,0.8,0.7c0.1,0.2,0.2,0.4,0.2,0.7c0,0.3-0.1,0.6-0.4,0.8c-0.2,0.2-0.5,0.3-0.9,0.3
		c-0.3,0-0.5-0.1-0.7-0.2C62.2,88.8,62,88.6,61.8,88.2"/>
	<path style="clip-path:url(#SVGID_00000031929819114932241370000012148409026367150983_);fill:#575756;" d="M68.3,86.5L68,86.7
		c-0.3-0.4-0.7-0.6-1.2-0.6c-0.4,0-0.7,0.1-1,0.4c-0.3,0.3-0.4,0.6-0.4,0.9c0,0.2,0.1,0.5,0.2,0.7c0.1,0.2,0.3,0.4,0.5,0.5
		c0.2,0.1,0.4,0.2,0.7,0.2c0.5,0,0.9-0.2,1.2-0.6l0.3,0.2c-0.2,0.2-0.4,0.4-0.6,0.5c-0.3,0.1-0.6,0.2-0.9,0.2
		c-0.5,0-0.9-0.2-1.3-0.5c-0.3-0.3-0.5-0.7-0.5-1.2c0-0.3,0.1-0.6,0.2-0.9c0.2-0.3,0.4-0.5,0.6-0.6c0.3-0.1,0.6-0.2,0.9-0.2
		c0.2,0,0.4,0,0.6,0.1c0.2,0.1,0.4,0.1,0.5,0.3C68.1,86.2,68.2,86.3,68.3,86.5"/>
	<path style="clip-path:url(#SVGID_00000031929819114932241370000012148409026367150983_);fill:#575756;" d="M69.1,84.6h0.4v1.8
		c0.2-0.2,0.3-0.4,0.5-0.5c0.2-0.1,0.4-0.2,0.7-0.2c0.2,0,0.5,0.1,0.6,0.2c0.2,0.1,0.3,0.3,0.4,0.5c0.1,0.2,0.1,0.5,0.1,1V89h-0.4
		v-1.5c0-0.4,0-0.6,0-0.7c-0.1-0.2-0.1-0.4-0.3-0.5c-0.1-0.1-0.3-0.2-0.5-0.2c-0.2,0-0.5,0.1-0.7,0.2s-0.3,0.4-0.4,0.6
		c0,0.2-0.1,0.4-0.1,0.9V89h-0.4V84.6z"/>
	
		<rect x="72.7" y="84.6" style="clip-path:url(#SVGID_00000031929819114932241370000012148409026367150983_);fill:#575756;" width="0.4" height="4.4"/>
	<path style="clip-path:url(#SVGID_00000031929819114932241370000012148409026367150983_);fill:#575756;" d="M75.5,85.7
		c0.5,0,0.9,0.2,1.2,0.5c0.3,0.3,0.4,0.7,0.4,1.2c0,0.4-0.2,0.8-0.5,1.2c-0.3,0.3-0.7,0.5-1.2,0.5c-0.5,0-0.9-0.2-1.2-0.5
		c-0.3-0.3-0.5-0.7-0.5-1.2c0-0.4,0.1-0.8,0.4-1.2C74.6,85.9,75,85.7,75.5,85.7 M75.5,86.2c-0.3,0-0.6,0.1-0.9,0.4
		c-0.2,0.3-0.4,0.6-0.4,0.9c0,0.2,0.1,0.4,0.2,0.6c0.1,0.2,0.3,0.4,0.5,0.5s0.4,0.2,0.6,0.2c0.2,0,0.4-0.1,0.6-0.2s0.3-0.3,0.5-0.5
		c0.1-0.2,0.2-0.4,0.2-0.6c0-0.4-0.1-0.7-0.4-0.9C76.1,86.3,75.8,86.2,75.5,86.2"/>
	<path style="clip-path:url(#SVGID_00000031929819114932241370000012148409026367150983_);fill:#575756;" d="M79.5,86.2l-0.3,0.3
		c-0.2-0.2-0.4-0.3-0.6-0.3c-0.1,0-0.2,0-0.3,0.1c-0.1,0.1-0.1,0.2-0.1,0.3c0,0.1,0,0.2,0.1,0.3c0.1,0.1,0.2,0.2,0.5,0.3
		c0.3,0.2,0.5,0.3,0.6,0.5c0.1,0.1,0.2,0.3,0.2,0.5c0,0.3-0.1,0.5-0.3,0.7c-0.2,0.2-0.4,0.3-0.7,0.3c-0.2,0-0.4,0-0.5-0.1
		s-0.3-0.2-0.4-0.3l0.3-0.3c0.2,0.2,0.4,0.4,0.7,0.4c0.2,0,0.3-0.1,0.4-0.2c0.1-0.1,0.2-0.2,0.2-0.4c0-0.1,0-0.2-0.1-0.3
		c-0.1-0.1-0.2-0.2-0.5-0.3c-0.3-0.1-0.5-0.3-0.6-0.4c-0.1-0.1-0.2-0.3-0.2-0.5c0-0.2,0.1-0.4,0.2-0.6c0.2-0.2,0.4-0.2,0.6-0.2
		C78.9,85.7,79.2,85.9,79.5,86.2"/>
	<path style="clip-path:url(#SVGID_00000031929819114932241370000012148409026367150983_);fill:#575756;" d="M81.9,86.2l-0.3,0.3
		c-0.2-0.2-0.4-0.3-0.6-0.3c-0.1,0-0.2,0-0.3,0.1c-0.1,0.1-0.1,0.2-0.1,0.3c0,0.1,0,0.2,0.1,0.3c0.1,0.1,0.2,0.2,0.5,0.3
		c0.3,0.2,0.5,0.3,0.6,0.5c0.1,0.1,0.2,0.3,0.2,0.5c0,0.3-0.1,0.5-0.3,0.7c-0.2,0.2-0.4,0.3-0.7,0.3c-0.2,0-0.4,0-0.5-0.1
		s-0.3-0.2-0.4-0.3l0.3-0.3c0.2,0.2,0.4,0.4,0.7,0.4c0.2,0,0.3-0.1,0.4-0.2c0.1-0.1,0.2-0.2,0.2-0.4c0-0.1,0-0.2-0.1-0.3
		c-0.1-0.1-0.2-0.2-0.5-0.3c-0.3-0.1-0.5-0.3-0.6-0.4c-0.1-0.1-0.2-0.3-0.2-0.5c0-0.2,0.1-0.4,0.2-0.6c0.2-0.2,0.4-0.2,0.6-0.2
		C81.3,85.7,81.6,85.9,81.9,86.2"/>
	<path style="clip-path:url(#SVGID_00000031929819114932241370000012148409026367150983_);fill:#575756;" d="M85.3,88l0.3,0.2
		c-0.1,0.2-0.2,0.4-0.4,0.5c-0.2,0.1-0.3,0.2-0.5,0.3c-0.2,0.1-0.4,0.1-0.6,0.1c-0.5,0-0.9-0.2-1.2-0.5c-0.3-0.3-0.4-0.7-0.4-1.2
		c0-0.4,0.1-0.8,0.4-1.1c0.3-0.4,0.7-0.6,1.3-0.6c0.5,0,1,0.2,1.3,0.6c0.2,0.3,0.3,0.7,0.4,1.1h-2.9c0,0.4,0.1,0.7,0.4,0.9
		c0.2,0.2,0.5,0.4,0.9,0.4c0.2,0,0.3,0,0.5-0.1c0.2-0.1,0.3-0.1,0.4-0.2C85,88.3,85.2,88.2,85.3,88 M85.3,87.1
		c-0.1-0.2-0.1-0.4-0.2-0.5c-0.1-0.1-0.2-0.2-0.4-0.3c-0.2-0.1-0.4-0.1-0.5-0.1c-0.3,0-0.6,0.1-0.8,0.3c-0.2,0.1-0.3,0.4-0.4,0.7
		H85.3z"/>
	<path style="clip-path:url(#SVGID_00000031929819114932241370000012148409026367150983_);fill:#575756;" d="M86.4,85.8h0.4v0.5
		c0.1-0.2,0.3-0.3,0.4-0.4c0.1-0.1,0.3-0.1,0.4-0.1c0.1,0,0.2,0,0.4,0.1l-0.2,0.3c-0.1,0-0.2-0.1-0.2-0.1c-0.1,0-0.3,0.1-0.4,0.2
		c-0.1,0.1-0.2,0.3-0.3,0.5c-0.1,0.2-0.1,0.6-0.1,1.1V89h-0.4V85.8z"/>
	<path style="clip-path:url(#SVGID_00000031929819114932241370000012148409026367150983_);fill:#575756;" d="M91,88l0.3,0.2
		c-0.1,0.2-0.2,0.4-0.4,0.5c-0.1,0.1-0.3,0.2-0.5,0.3c-0.2,0.1-0.4,0.1-0.6,0.1c-0.5,0-0.9-0.2-1.2-0.5c-0.3-0.3-0.4-0.7-0.4-1.2
		c0-0.4,0.1-0.8,0.4-1.1c0.3-0.4,0.7-0.6,1.3-0.6c0.5,0,1,0.2,1.3,0.6c0.2,0.3,0.3,0.7,0.4,1.1h-2.9c0,0.4,0.1,0.7,0.4,0.9
		c0.2,0.2,0.5,0.4,0.9,0.4c0.2,0,0.3,0,0.5-0.1c0.2-0.1,0.3-0.1,0.4-0.2C90.8,88.3,90.9,88.2,91,88 M91,87.1
		c-0.1-0.2-0.1-0.4-0.2-0.5c-0.1-0.1-0.2-0.2-0.4-0.3c-0.2-0.1-0.4-0.1-0.5-0.1c-0.3,0-0.6,0.1-0.8,0.3c-0.2,0.1-0.3,0.4-0.4,0.7H91
		z"/>
	<path style="clip-path:url(#SVGID_00000031929819114932241370000012148409026367150983_);fill:#575756;" d="M92.4,84.5
		c0.1,0,0.2,0,0.2,0.1c0.1,0.1,0.1,0.1,0.1,0.2c0,0.1,0,0.2-0.1,0.2c-0.1,0.1-0.1,0.1-0.2,0.1c-0.1,0-0.2,0-0.2-0.1
		C92.1,85,92,84.9,92,84.9c0-0.1,0-0.2,0.1-0.2C92.2,84.5,92.3,84.5,92.4,84.5 M92.2,85.8h0.4V89h-0.4V85.8z"/>
</g>
<rect x="116.5" class="st1" width="124.4" height="155.9"/>
<text transform="matrix(1 0 0 1 130.8574 49.6384)" class="st2 st3 st4">Ulrich Grabmair</text>
<text transform="matrix(1.06 0 0 1 130.8574 67.3552)" class="st2 st5 st6">Untere Landstraße 15 </text>
<text transform="matrix(1.06 0 0 1 130.8574 76.3572)" class="st2 st5 st6">4055 Pucking </text>
<text transform="matrix(1.06 0 0 1 130.8574 94.3538)"><tspan x="0" y="0" class="st2 st5 st6">T</tspan><tspan x="3.5" y="0" class="st2 st5 st6">el: 07229/805 29</tspan></text>
<text transform="matrix(1.06 0 0 1 131.5878 102.7903)" class="st2 st5 st6">ulrich.grabmair@liwest.at</text>
<rect class="st7" width="240.9" height="155.9"/>
</svg>
